<svg width="643" height="341" viewBox="0 0 643 341" fill="none" xmlns="http://www.w3.org/2000/svg">
<ellipse cx="321.841" cy="312.35" rx="321.068" ry="28.215" fill="#ECF0F9"/>
<path d="M551.803 299.421C551.803 268.649 545.742 238.178 533.966 209.748C522.19 181.318 504.929 155.486 483.17 133.727C461.411 111.967 435.579 94.7069 407.149 82.9308C378.719 71.1548 348.248 65.0937 317.476 65.0938C286.703 65.0938 256.232 71.1548 227.803 82.9309C199.373 94.7069 173.541 111.967 151.781 133.727C130.022 155.486 112.762 181.318 100.986 209.748C89.2095 238.178 83.1484 268.649 83.1484 299.421" stroke="#ECF0F9"/>
<path d="M607.841 299.42C607.841 261.289 600.33 223.531 585.738 188.302C571.146 153.073 549.757 121.063 522.794 94.0995C495.831 67.1363 463.821 45.748 428.592 31.1557C393.363 16.5633 355.605 9.05273 317.473 9.05273C279.342 9.05274 241.583 16.5633 206.354 31.1557C171.125 45.748 139.115 67.1363 112.152 94.0995C85.1891 121.063 63.8007 153.073 49.2084 188.302C34.616 223.531 27.1055 261.289 27.1055 299.42" stroke="#ECF0F9"/>
<path fill-rule="evenodd" clip-rule="evenodd" d="M474.202 251.27C466.044 225.466 452.146 201.743 433.332 182.177C401.773 149.354 358.97 130.914 314.338 130.914C269.706 130.914 226.903 149.354 195.344 182.177C176.995 201.26 163.321 224.297 155.088 249.363C155.428 248.788 155.772 248.321 156.12 247.973C162.192 241.901 170.63 237.895 179.217 237.895C187.803 237.895 195.402 241.649 201.474 247.721C203.182 249.71 204.923 251.653 206.661 253.592L206.661 253.592C218.518 266.82 230.182 279.834 229.714 305.935L314.338 305.935H400.402L399.795 305.906C398.537 296.331 409.491 249.928 426.522 247.782C432.593 241.71 440.541 238.517 449.128 238.517C457.714 238.517 467.475 244.388 473.546 250.46C473.768 250.681 473.986 250.952 474.202 251.27ZM147.338 284.36C147.032 286.918 146.781 289.487 146.584 292.065C146.781 289.628 147.034 287.03 147.338 284.36ZM146.055 305.935C146.055 304.6 146.069 303.267 146.099 301.936C146.093 303.554 146.146 304.911 146.264 305.935H146.055ZM188.422 305.935H161.984L179.215 305.671L188.422 305.935Z" fill="#3B82F5"/>
<path opacity="0.1" d="M347.96 136.181L346.023 135.699C346.671 135.847 347.317 136.008 347.96 136.181L353.495 137.559C365.56 140.563 377.226 144.989 388.249 150.742C397.788 155.721 406.79 161.667 415.115 168.485L419.939 172.437C428.375 179.347 436.042 187.145 442.808 195.697C448.588 203.003 453.683 210.824 458.03 219.064L468.853 239.581L473.381 249.693C466.187 243.002 447.029 232.276 427.951 242.902C423.745 213.17 390.136 147.55 347.96 136.181Z" fill="#2E3446"/>
<path d="M345.838 134.351C346.264 144.715 341.721 150.961 341.721 150.961C332.679 160.365 325.432 162.727 312.644 162.727C299.857 162.727 291.732 159.087 282.69 149.683C281.155 147.901 278.859 139.794 280.101 134.919L312.761 129.809L345.838 134.351Z" fill="#2E3446"/>
<path d="M293.336 143.073L293.621 123.209L331.553 123.209V143.075C316.038 156.502 299.61 148.668 293.336 143.073Z" fill="white"/>
<path d="M139.867 284.531C123.909 308.971 134.168 320.095 141.292 322.602C148.494 330.204 155.791 327.2 158.54 324.748C167.1 333.221 177.563 325.925 181.725 321.218L190.196 320.556C190.196 320.556 190.842 321.056 194.878 323.865C201.837 328.711 215.239 320.924 220.961 316.584C229.343 303.169 220.143 297.755 214.496 296.726C209.189 297.035 207.96 295.012 207.703 294.357C207.991 291.225 208.068 282.201 207.364 268.264C206.65 254.142 197.257 245.023 192.65 242.229C188.935 239.875 177.803 237.022 162.999 244.438C148.195 251.853 141.353 274.456 139.867 284.531Z" fill="white"/>
<path d="M140.91 322.705C133.695 320.14 123.306 308.758 139.467 283.748C142.083 282.112 147.27 280.465 147.09 286.968M140.91 322.705C148.204 330.485 155.595 327.411 158.379 324.902M140.91 322.705C140.562 313.2 141.31 292.746 147.09 286.968M147.09 286.968C150.945 276.885 161.49 281.112 166.281 284.486M158.379 324.902C167.049 333.572 177.646 326.106 181.86 321.289M158.379 324.902C157.551 312.935 157.972 288.099 166.281 284.486M185.247 299.84L181.86 321.289M181.86 321.289L190.44 320.612M166.281 284.486C176.667 279.971 182.312 281.099 189.086 289.228C194.504 295.73 208.653 296.603 215.051 296.227C220.771 297.281 230.088 302.82 221.598 316.548C215.803 320.988 202.407 328.695 195.182 323.998C186.15 318.128 191.47 301.53 207.6 301.646" stroke="#2E3446"/>
<path d="M139.641 283.136C141.145 272.826 147.902 250.311 162.895 242.723C177.889 235.134 189.163 238.054 192.926 240.463C197.592 243.322 207.105 252.653 207.828 267.103C208.55 281.553 208.128 292.015 207.827 295.101" stroke="#2E3446"/>
<path d="M198.217 239.861C185.425 233.112 169.214 239.51 162.707 243.552C173.671 238.211 184.854 238.513 189.075 239.332C202.854 243.269 207.353 259.368 207.88 266.926L208.583 286.434C223.769 289.95 223.23 276.768 221.062 269.738C218.777 262.591 211.009 246.609 198.217 239.861Z" fill="#2E3446"/>
<path d="M147.025 279.665C144.747 277.465 141.443 281.153 140.164 282.837C145.38 280.14 147.251 283.078 147.36 284.815L149.336 282.718C154.074 278.146 161.803 281.039 166.358 283.976L168.276 283.077C167.648 282.292 164.605 279.845 163.328 278.503C156.346 273.016 150.462 278.095 148.105 280.845L147.025 279.665Z" fill="#D9E5F5"/>
<path d="M189.044 283.374C186.456 280.369 180.643 280.883 178.73 281.404C181.265 281.731 184.73 283.092 189.044 288.812C192.669 293.619 203.566 295.276 207.218 295.519L207.547 290.42L203.401 290.524C199.123 290.732 192.278 287.13 189.044 283.374Z" fill="#D9E5F5"/>
<path d="M488.84 284.531C504.798 308.971 494.539 320.095 487.415 322.602C480.213 330.204 472.916 327.2 470.167 324.748C461.607 333.221 451.144 325.925 446.982 321.218L438.511 320.556C438.511 320.556 437.865 321.056 433.829 323.865C426.87 328.711 413.468 320.924 407.746 316.584C399.364 303.169 408.564 297.755 414.211 296.726C419.518 297.035 420.747 295.012 421.004 294.357C420.716 291.225 420.639 282.201 421.343 268.264C422.057 254.142 431.45 245.023 436.057 242.229C439.773 239.875 450.904 237.022 465.708 244.438C480.512 251.853 487.354 274.456 488.84 284.531Z" fill="white"/>
<path d="M487.851 322.705C495.066 320.14 505.456 308.758 489.294 283.748C486.678 282.112 481.491 280.465 481.672 286.968M487.851 322.705C480.557 330.485 473.167 327.411 470.383 324.902M487.851 322.705C488.2 313.2 487.452 292.746 481.672 286.968M481.672 286.968C477.817 276.885 467.271 281.112 462.48 284.486M470.383 324.902C461.713 333.572 451.116 326.106 446.901 321.289M470.383 324.902C471.211 312.935 470.789 288.099 462.48 284.486M443.515 299.84L446.901 321.289M446.901 321.289L438.322 320.612M462.48 284.486C452.094 279.971 446.45 281.099 439.676 289.228C434.257 295.73 420.108 296.603 413.711 296.227C407.991 297.281 398.674 302.82 407.163 316.548C412.958 320.988 426.355 328.695 433.58 323.998C442.611 318.128 437.292 301.53 421.162 301.646" stroke="#2E3446"/>
<path d="M489.121 283.136C487.617 272.826 480.859 250.311 465.866 242.723C450.873 235.134 439.599 238.054 435.836 240.463C431.17 243.322 421.657 252.653 420.934 267.103C420.212 281.553 420.633 291.337 420.934 294.423" stroke="#2E3446"/>
<path d="M430.545 239.861C443.337 233.112 459.548 239.51 466.055 243.552C455.091 238.211 443.908 238.513 439.687 239.332C425.908 243.269 421.409 259.368 420.881 266.926L420.178 286.434C404.993 289.95 405.532 276.768 407.7 269.738C409.985 262.591 417.752 246.609 430.545 239.861Z" fill="#2E3446"/>
<path d="M481.59 279.022C483.868 276.822 487.151 281.037 488.43 282.722C483.615 280.359 481.735 282.678 481.21 284.778L479.001 282.294C474.263 277.722 465.867 281.148 462.483 284.035L460.558 282.985C461.187 282.199 464.009 279.202 465.286 277.86C472.268 272.373 478.153 277.452 480.51 280.202L481.59 279.022Z" fill="#D9E5F5"/>
<path d="M212.68 205.273C212.337 202.812 214.249 200.615 216.734 200.615H410.087C412.558 200.615 414.466 202.79 414.145 205.241L400.836 306.729C400.568 308.766 398.832 310.29 396.777 310.29H230.88C228.838 310.29 227.108 308.784 226.826 306.761L212.68 205.273Z" fill="#2E3446"/>
<rect x="226.258" y="310.154" width="175.746" height="11.24" rx="3" fill="#484D5C"/>
<circle cx="317.215" cy="255.003" r="20.6764" fill="#E4ECF9"/>
<path d="M314.408 134.115C306.796 136.077 297.394 129.934 293.645 126.617L331.276 125.896C328.825 127.819 322.02 132.154 314.408 134.115Z" fill="#D9E5F5"/>
<path d="M292.982 6.19549C327.993 -3.2421 339.129 10.3499 342.004 17.1219C368.189 17.8462 365.495 54.2566 360.874 72.3713L357.188 78.1385L350.431 101.815C347.872 108.391 340.909 119.42 330.773 126.098C321.612 132.133 310.838 133.767 293.598 126.559C279.805 120.792 272.379 102.75 270.39 94.4495C268.178 88.1149 262.959 74.6595 259.777 71.5141C255.798 67.5824 249.219 17.9925 292.982 6.19549Z" fill="white"/>
<path d="M286.193 50.3132C288.642 67.0379 277.695 81.4154 271.916 86.5135C263.247 73.0864 252.079 41.0315 276.757 20.2286C301.435 -0.574428 330.719 9.6917 342.276 17.4251C365.731 19.7196 363.215 43.3748 362.672 56.6817C362.162 69.1698 355.193 77.8456 349.67 81.9246C320.301 92.3261 295.115 65.1843 286.193 50.3132Z" fill="#2E3446" stroke="#2E3446" stroke-width="0.5"/>
<path d="M292.788 22.986C298.783 20.1945 305.226 18.75 311.745 18.75C318.265 18.75 324.708 20.1945 330.702 22.986C336.694 25.7767 342.11 29.8534 346.652 34.9602C351.194 40.0664 354.778 46.1068 357.217 52.7281C359.628 59.272 360.879 66.2693 360.908 73.3321H354.862C354.834 66.9399 353.7 60.6215 351.53 54.7317C349.331 48.765 346.118 43.3679 342.091 38.8397C338.064 34.3123 333.306 30.7465 328.103 28.3232C322.901 25.9007 317.344 24.6615 311.745 24.6615C306.146 24.6615 300.589 25.9007 295.388 28.3232C290.184 30.7465 285.426 34.3123 281.4 38.8397C277.372 43.3679 274.159 48.765 271.961 54.7317C269.791 60.6215 268.657 66.9399 268.628 73.3321H262.583C262.611 66.2693 263.862 59.2721 266.273 52.7281C268.713 46.1068 272.297 40.0664 276.838 34.9602C281.38 29.8534 286.796 25.7767 292.788 22.986Z" fill="white" stroke="#2E3446" stroke-width="0.5"/>
<path d="M351.099 81.8139C351.098 76.5226 356.567 73.0837 359.302 72.0257C366.918 69.4857 369.885 74.3186 370.416 77.0526C370.328 80.3153 370.099 88.1106 369.887 93.1899C369.676 98.2692 366.199 102.771 361.255 103.101L350.836 103.243C350.924 98.3045 351.1 87.1053 351.099 81.8139Z" fill="#2E3446" stroke="#2E3446"/>
<path d="M272.327 80.9585C272.328 75.6671 266.859 72.2283 264.124 71.1702C256.508 68.6302 253.541 73.4631 253.009 76.1971C253.097 79.4598 253.327 87.2552 253.538 92.3345C253.75 97.4138 257.227 101.916 262.171 102.245L272.59 102.387C272.502 97.449 272.326 86.2498 272.327 80.9585Z" fill="#2E3446" stroke="#2E3446"/>
<path d="M308.164 114.371C312.35 113.989 321.806 111.458 326.137 104.387" stroke="#2E3446" stroke-width="2.04653"/>
<ellipse cx="300.61" cy="88.2738" rx="1.85255" ry="4.13706" fill="#2E3446"/>
<ellipse cx="324.567" cy="88.2738" rx="1.85255" ry="4.13706" fill="#2E3446"/>
<path d="M293.906 79.0055C295.904 77.8638 300.414 75.6375 302.465 75.8659" stroke="#2E3446" stroke-width="2.04653"/>
<path d="M309.02 93.2643C308.453 95.0688 308.403 98.5642 312.734 98.1094C318.149 97.5409 315.579 92.1222 313.297 92.4074" stroke="#2E3446" stroke-width="2.04653"/>
<g opacity="0.5">
<path d="M495.037 76.1802C496.092 76.987 497.175 77.753 498.193 78.606C500.314 80.398 502.179 82.4069 503.085 85.1118C503.728 87.0292 503.657 88.9199 502.636 90.7052C500.175 94.9958 497.7 99.2736 495.211 103.548C494.553 104.679 493.806 105.757 492.785 106.605C490.312 108.661 487.521 108.84 484.57 107.928C483.682 107.654 482.834 107.264 482.026 106.797C477.286 104.05 472.549 101.305 467.791 98.5895C466.162 97.6594 464.395 97.1755 462.498 97.3505C459.979 97.5832 458.065 98.9047 456.453 100.749C455.983 101.285 455.605 101.884 455.253 102.504C454.033 104.616 452.814 106.729 451.594 108.842C451.382 109.209 451.176 109.548 450.67 109.251C449.101 108.334 447.477 107.495 445.967 106.494C443.292 104.715 442.286 102.047 442.271 98.9445C442.255 96.3476 442.947 93.8942 443.942 91.5317C445.457 87.9337 447.391 84.5831 450.043 81.6938C451.931 79.6333 454.106 77.9941 456.906 77.3561C459.261 76.8207 461.51 77.1194 463.59 78.3149C470.074 82.0274 476.538 85.7851 483.006 89.5249C483.62 89.8796 484.103 89.7537 484.453 89.1471C484.845 88.4676 484.698 87.9294 484.01 87.5326C479.863 85.1382 475.712 82.7415 471.565 80.3471C470.745 79.8737 470.753 79.8782 471.226 79.0318C472.244 77.2141 473.289 75.4122 474.265 73.5697C475.418 71.3925 477.282 70.4801 479.638 70.3771C482.13 70.264 484.461 70.9696 486.748 71.8523C487.757 72.2422 488.741 72.7013 489.736 73.1246C491.505 74.146 493.27 75.1651 495.039 76.1864L495.037 76.1802ZM482.936 78.7691C483.795 77.3176 483.39 75.6306 481.975 74.7982C480.531 73.9439 478.761 74.3851 477.93 75.806C477.138 77.1604 477.634 78.9983 479.012 79.8042C480.386 80.6079 482.118 80.1503 482.936 78.7691Z" fill="#F7BF68"/>
<path d="M478.238 124.578C474.915 122.66 471.592 120.741 468.268 118.822C467.487 118.371 467.479 118.367 467.046 119.127C466.284 120.446 466.243 120.246 467.524 120.986C471.656 123.371 475.784 125.754 479.915 128.139C480.735 128.613 480.735 128.623 480.256 129.461C479.169 131.343 478.051 133.207 477.012 135.117C476.017 136.948 474.427 137.79 472.45 138.039C470.563 138.277 468.714 137.98 466.942 137.389C461.277 135.504 456.167 132.631 451.807 128.521C450.243 127.045 448.982 125.333 448.332 123.24C447.742 121.332 447.835 119.511 448.881 117.735C451.545 113.202 454.146 108.633 456.793 104.095C457.7 102.541 458.975 101.361 460.646 100.649C462.835 99.7161 465.023 99.9585 467.208 100.674C467.888 100.894 468.503 101.244 469.12 101.6C473.615 104.195 478.103 106.802 482.609 109.378C483.877 110.104 485.198 110.747 486.66 111.019C489.983 111.631 492.602 110.368 494.783 107.961C495.422 107.252 495.977 106.479 496.453 105.645C497.589 103.661 498.749 101.696 499.869 99.7026C500.165 99.1809 500.441 99.0804 500.966 99.3987C502.215 100.157 503.478 100.901 504.769 101.595C507.37 102.997 508.686 105.236 509.052 108.092C509.39 110.735 508.857 113.264 507.934 115.72C506.318 120.015 504.098 123.961 500.89 127.279C498.895 129.345 496.57 130.893 493.63 131.278C491.633 131.536 489.737 131.212 487.979 130.207C484.727 128.345 481.485 126.458 478.24 124.584L478.238 124.578ZM468.42 129.751C467.624 131.139 468.105 132.948 469.478 133.745C470.872 134.55 472.696 134.042 473.503 132.617C474.294 131.22 473.791 129.431 472.39 128.647C470.973 127.855 469.224 128.34 468.416 129.748L468.42 129.751Z" fill="#F7BF68"/>
</g>
<g opacity="0.5">
<mask id="mask0_95_1063" style="mask-type:luminance" maskUnits="userSpaceOnUse" x="107" y="92" width="72" height="72">
<path d="M152.423 92.4981L107.406 118.488L133.396 163.505L178.413 137.514L152.423 92.4981Z" fill="white"/>
</mask>
<g mask="url(#mask0_95_1063)">
<path d="M137.382 155.307L110.84 117.533L149.854 95.0084L169.288 136.877L155.869 150.531L137.382 155.307Z" fill="#E44D26"/>
<path d="M140.759 124.299L134.296 128.03L130.962 123.287L137.872 119.298L135.052 114.413L135.035 114.423L122.805 121.484L123.678 122.727L132.649 135.494L143.579 129.183L140.759 124.299Z" fill="#EBEBEB"/>
<path d="M148.075 136.981L148.057 136.999L141.769 138.671L139.172 134.976L136.529 136.502L134.27 137.807L139.381 145.08L150.99 142.082L151.009 142.062L148.075 136.981Z" fill="#EBEBEB"/>
<path d="M140.742 124.305L143.562 129.189L149.576 125.716L152.667 132.378L148.068 136.993L151.002 142.075L159.412 133.519L159.01 132.651L152.733 119.13L152.095 117.75L150.779 118.51L140.742 124.305Z" fill="white"/>
<path d="M135.031 114.42L136.783 117.453L137.844 119.292L137.851 119.304L149.633 112.502L149.649 112.493L149.113 111.338L147.906 108.734L147.266 107.356L135.031 114.42Z" fill="white"/>
</g>
</g>
<path opacity="0.5" d="M221.028 28.7399L220.178 28.8818C219.953 28.8708 219.733 28.841 219.52 28.761C218.531 28.389 217.54 28.0197 216.55 27.6493C214.155 26.753 211.76 25.8566 209.364 24.9593C209.151 24.8794 208.929 24.8169 208.729 24.7056C208.251 24.4396 207.921 24.04 207.705 23.5424C207.679 23.4849 207.659 23.4251 207.637 23.3662C206.995 19.5208 206.352 15.6749 205.71 11.8294C205.711 11.8141 205.714 11.7991 205.714 11.7841C205.709 11.511 205.76 11.247 205.852 10.9912C205.982 10.627 206.174 10.3021 206.477 10.0524C207.682 9.05936 208.888 8.06581 210.093 7.07281C211.722 5.73123 213.351 4.38974 214.98 3.04817C215.168 2.89342 215.35 2.73183 215.575 2.62818C215.814 2.51776 216.065 2.44963 216.326 2.41969C216.65 2.38265 216.969 2.40223 217.277 2.51775C218.989 3.15867 220.7 3.79913 222.412 4.4395C224.168 5.09672 225.923 5.75653 227.682 6.40808C228.041 6.5413 228.364 6.72108 228.625 7.00539C228.914 7.32033 229.132 7.672 229.204 8.10247C229.825 11.8213 230.446 15.5401 231.067 19.2589C231.076 19.3104 231.088 19.3623 231.089 19.4141C231.1 20.153 230.861 20.7888 230.282 21.2662C227.498 23.5649 224.709 25.8588 221.922 28.1553C221.645 28.3837 221.377 28.6229 221.028 28.7399ZM210.588 16.9453C210.639 17.2641 210.712 17.5778 210.805 17.8864C211.124 18.9579 211.642 19.9224 212.372 20.7719C213.163 21.6905 214.11 22.3994 215.219 22.8879C216.413 23.4144 217.663 23.6307 218.967 23.5388C219.566 23.4966 220.153 23.3883 220.726 23.2115C221.62 22.9354 222.441 22.5156 223.186 21.9483C224.371 21.0441 225.239 19.8981 225.787 18.5107C225.821 18.4233 225.821 18.4229 225.734 18.3904C224.553 17.9469 223.372 17.5041 222.191 17.0592C222.138 17.0393 222.117 17.0458 222.095 17.1C221.498 18.581 220.122 19.5603 218.53 19.6032C217.225 19.6384 216.148 19.1359 215.318 18.1278C214.784 17.4787 214.494 16.7257 214.445 15.8853C214.384 14.8337 214.692 13.8965 215.368 13.0928C216.091 12.2333 217.023 11.7513 218.146 11.6861C219.446 11.6108 220.533 12.0792 221.405 13.0459C221.466 13.1143 221.465 13.1155 221.537 13.0564C222.507 12.2562 223.476 11.456 224.446 10.6554C224.516 10.5981 224.516 10.5956 224.459 10.5279C223.978 9.96268 223.431 9.47267 222.813 9.06057C222.118 8.59675 221.369 8.24912 220.565 8.02256C219.221 7.6437 217.872 7.61705 216.515 7.94711C215.924 8.09089 215.358 8.29821 214.818 8.57539C213.363 9.32203 212.237 10.4125 211.453 11.846C210.58 13.4442 210.303 15.1497 210.588 16.9472L210.588 16.9453Z" fill="#A8CAFF"/>
</svg>
